<?xml version="1.0" encoding="UTF-8" standalone="no"?> <!-- Created with Vectornator for iOS (http://vectornator.io/) --><!DOCTYPE svg PUBLIC "-//W3C//DTD SVG 1.1//EN" "http://www.w3.org/Graphics/SVG/1.1/DTD/svg11.dtd">
<svg width="100%" viewBox="0 0 1920 867" version="1.1" style="fill-rule:nonzero;clip-rule:evenodd;stroke-linecap:round;stroke-linejoin:round;" xmlns:xlink="http://www.w3.org/1999/xlink" height="100%" xml:space="preserve" xmlns:vectornator="http://vectornator.io" xmlns="http://www.w3.org/2000/svg">
<metadata>
<vectornator:setting key="VNPencilOnly" value="true"/>
<vectornator:setting key="WDGuidesVisible" value="true"/>
<vectornator:setting key="WDSnapToGrid" value="true"/>
<vectornator:setting key="WDCMYKEnabledKey" value="false"/>
<vectornator:setting value="false" key="WDSnapToEdges"/>
<vectornator:setting key="UndoHistoryDisabled" value="false"/>
<vectornator:setting key="VNSnapToGuides" value="true"/>
<vectornator:setting key="IsTimeLapseWatermarkDisabled" value="false"/>
<vectornator:setting key="WDDynamicGuides" value="false"/>
<vectornator:setting key="WDSnapToPoints" value="false"/>
<vectornator:setting key="WDUnits" value="Pixels"/>
<vectornator:setting key="WDDisplayWhiteBackground" value="false"/>
<vectornator:setting key="WDIsolateActiveLayer" value="false"/>
<vectornator:setting key="WDRulersVisible" value="true"/>
<vectornator:setting key="VNDimensionsVisible" value="true"/>
<vectornator:setting key="WDOutlineMode" value="false"/>
</metadata>
<defs/>
<g vectornator:layerName="Ebene 1" id="Ebene 1">
<path d="M-558.688+1362.42L-621.707+2649.05C-621.707+2649.05+1841.28+2646.42+1862.28+2641.17C1883.29+2635.92+1744.12+1215.37+1744.12+1215.37L-558.688+1362.42Z" fill="#323232" opacity="1"/>
<path stroke-width="12" stroke="#af0000" stroke-linecap="round" fill="#af0000" opacity="1" d="M177.931+292.843C101.756+304.962+51.5499+315.349+37.6999+329.199C16.925+351.706+10+396.718+10+509.249C10+621.78+20.3875+673.717+44.6249+685.836C86.1748+708.342+221.212+708.342+221.212+708.342" stroke-linejoin="round"/>
<path fill="#0069ff" stroke-width="12" stroke="#0069ff" stroke-linejoin="miter" stroke-linecap="butt" opacity="1" d="M1486.86+86.9341C1295.66+86.9341+1140.66+241.934+1140.66+433.137C1140.66+624.34+1295.66+779.341+1486.86+779.341C1678.07+779.341+1833.07+624.34+1833.07+433.137C1833.07+241.935+1678.07+86.9341+1486.86+86.9341Z"/>
<path stroke-linejoin="miter" fill="#003f9a" stroke-width="12" stroke="#003f9a" stroke-linecap="butt" d="M1486.86+394.67C1465.62+394.67+1448.4+411.893+1448.4+433.137C1448.4+454.382+1465.62+471.604+1486.86+471.604C1508.11+471.604+1525.33+454.382+1525.33+433.137C1525.33+411.893+1508.11+394.67+1486.86+394.67ZM1486.86+183.102C1465.62+183.102+1448.4+200.324+1448.4+221.569C1448.4+242.813+1465.62+260.036+1486.86+260.036C1508.11+260.036+1525.33+242.813+1525.33+221.569C1525.33+200.324+1508.11+183.102+1486.86+183.102ZM1486.86+606.239C1465.62+606.239+1448.4+623.461+1448.4+644.706C1448.4+665.951+1465.62+683.173+1486.86+683.173C1508.11+683.173+1525.33+665.951+1525.33+644.706C1525.33+623.461+1508.11+606.239+1486.86+606.239ZM1698.43+394.67C1677.19+394.67+1659.96+411.893+1659.96+433.137C1659.96+454.382+1677.19+471.604+1698.43+471.604C1719.68+471.604+1736.9+454.382+1736.9+433.137C1736.9+411.893+1719.68+394.67+1698.43+394.67ZM1275.29+394.67C1254.05+394.67+1236.83+411.893+1236.83+433.137C1236.83+454.382+1254.05+471.604+1275.29+471.604C1296.54+471.604+1313.76+454.382+1313.76+433.137C1313.76+411.893+1296.54+394.67+1275.29+394.67ZM1623.42+258.112C1602.18+258.112+1584.95+275.335+1584.95+296.579C1584.95+317.824+1602.18+335.046+1623.42+335.046C1644.67+335.046+1661.89+317.824+1661.89+296.579C1661.89+275.335+1644.67+258.112+1623.42+258.112ZM1350.3+531.228C1329.05+531.207+1311.8+548.436+1311.8+569.695C1311.8+590.955+1329.05+608.183+1350.3+608.162C1371.56+608.183+1388.81+590.955+1388.81+569.695C1388.81+548.436+1371.56+531.207+1350.3+531.228ZM1623.42+531.228C1602.16+531.207+1584.92+548.436+1584.92+569.695C1584.92+590.955+1602.16+608.183+1623.42+608.162C1644.68+608.183+1661.93+590.955+1661.93+569.695C1661.93+548.436+1644.68+531.207+1623.42+531.228ZM1350.3+258.112C1329.06+258.112+1311.84+275.335+1311.84+296.579C1311.84+317.824+1329.06+335.046+1350.3+335.046C1371.55+335.046+1388.77+317.824+1388.77+296.579C1388.77+275.335+1371.55+258.112+1350.3+258.112ZM1486.86+86.9341L1486.86+10" opacity="1"/>
<path d="M1448.4+10L1525.33+10" fill="none" stroke="#0069ff" opacity="1" stroke-width="12" stroke-linecap="round" stroke-linejoin="round"/>
<path stroke-linejoin="miter" d="M1486.86+779.341L1486.86+856.275" stroke-linecap="butt" stroke-width="12" fill="none" stroke="#0069ff" opacity="1"/>
<path d="M1525.33+856.275L1448.4+856.275" opacity="1" stroke-width="12" stroke-linejoin="round" fill="none" stroke="#0069ff" stroke-linecap="round"/>
<path stroke-width="12" d="M1833.07+433.137L1910+433.137" opacity="1" fill="none" stroke-linecap="butt" stroke="#0069ff" stroke-linejoin="miter"/>
<path d="M1910+394.67L1910+471.604" opacity="1" stroke="#0069ff" stroke-linejoin="round" fill="none" stroke-linecap="round" stroke-width="12"/>
<path stroke-width="12" stroke-linejoin="miter" stroke-linecap="butt" stroke="#0069ff" d="M1140.66+433.137L1063.73+433.137" fill="none" opacity="1"/>
<path stroke-width="12" fill="none" d="M1063.73+471.604L1063.73+394.67" stroke-linejoin="round" stroke-linecap="round" stroke="#0069ff" opacity="1"/>
<path fill="none" stroke="#0069ff" stroke-linejoin="miter" stroke-width="12" stroke-linecap="butt" opacity="1" d="M1731.13+188.872L1786.91+133.094"/>
<path d="M1758.06+106.168L1813.83+161.945" stroke-width="12" stroke="#0069ff" opacity="1" stroke-linejoin="round" fill="none" stroke-linecap="round"/>
<path fill="none" stroke-linejoin="miter" stroke-linecap="butt" stroke-width="12" stroke="#0069ff" d="M1242.6+677.403L1186.82+733.18" opacity="1"/>
<path stroke="#0069ff" stroke-linejoin="round" stroke-width="12" fill="none" d="M1215.67+760.107L1159.89+704.33" stroke-linecap="round" opacity="1"/>
<path stroke="#0069ff" d="M1731.13+677.403L1786.91+733.18" opacity="1" stroke-width="12" stroke-linejoin="miter" fill="none" stroke-linecap="butt"/>
<path stroke-linecap="round" fill="none" opacity="1" stroke-width="12" d="M1813.83+704.33L1758.06+760.107" stroke-linejoin="round" stroke="#0069ff"/>
<path opacity="1" stroke-linejoin="miter" fill="none" stroke-width="12" d="M1242.6+188.872L1186.82+133.094" stroke-linecap="butt" stroke="#0069ff"/>
<path stroke="#0069ff" fill="none" d="M1159.89+161.945L1215.67+106.168" stroke-width="12" stroke-linecap="round" opacity="1" stroke-linejoin="round"/>
<path d="M1354.15+113.861L1332.99+60.0071" stroke-width="12" stroke-linejoin="miter" stroke="#0069ff" opacity="1" fill="none" stroke-linecap="butt"/>
<path stroke-width="12" opacity="1" fill="none" d="M1306.07+71.5472L1358+48.467" stroke-linejoin="round" stroke-linecap="round" stroke="#0069ff"/>
<path stroke="#0069ff" d="M1619.57+752.414L1640.73+806.268" opacity="1" stroke-linecap="butt" stroke-width="12" fill="none" stroke-linejoin="miter"/>
<path stroke-linecap="round" stroke-width="12" opacity="1" stroke-linejoin="round" d="M1667.66+794.727L1615.73+817.808" fill="none" stroke="#0069ff"/>
<path opacity="1" stroke-width="12" d="M1806.14+300.426L1859.99+279.269" stroke-linecap="butt" fill="none" stroke="#0069ff" stroke-linejoin="miter"/>
<path d="M1848.45+252.342L1871.53+304.273" stroke-linejoin="round" fill="none" opacity="1" stroke="#0069ff" stroke-width="12" stroke-linecap="round"/>
<path stroke="#0069ff" stroke-linejoin="miter" fill="none" opacity="1" stroke-linecap="butt" stroke-width="12" d="M1167.59+565.849L1113.73+587.005"/>
<path stroke-width="12" fill="none" stroke="#0069ff" opacity="1" stroke-linecap="round" d="M1125.27+613.932L1102.19+562.002" stroke-linejoin="round"/>
<path opacity="1" stroke-width="12" stroke-linecap="butt" stroke-linejoin="miter" stroke="#0069ff" fill="none" d="M1619.57+113.861L1640.73+60.0071"/>
<path fill="none" opacity="1" d="M1615.73+48.467L1667.66+71.5472" stroke-linecap="round" stroke-width="12" stroke="#0069ff" stroke-linejoin="round"/>
<path d="M1354.15+752.414L1332.99+806.268" stroke-width="12" stroke="#0069ff" stroke-linejoin="miter" stroke-linecap="butt" opacity="1" fill="none"/>
<path d="M1358+817.808L1306.07+794.727" stroke="#0069ff" stroke-width="12" opacity="1" stroke-linejoin="round" stroke-linecap="round" fill="none"/>
<path opacity="1" stroke-linejoin="miter" stroke-linecap="butt" stroke-width="12" fill="none" stroke="#0069ff" d="M1806.14+565.849L1859.99+587.005"/>
<path opacity="1" stroke-linejoin="round" fill="none" stroke-linecap="round" stroke-width="12" d="M1871.53+562.002L1848.45+613.932" stroke="#0069ff"/>
<path stroke-width="12" stroke-linejoin="miter" d="M1167.59+300.426L1113.73+279.269" stroke="#0069ff" opacity="1" fill="none" stroke-linecap="butt"/>
<path stroke-width="12" stroke-linejoin="round" stroke="#0069ff" d="M1102.19+304.273L1125.27+252.342" opacity="1" fill="none" stroke-linecap="round"/>
<path opacity="1" stroke-linejoin="round" stroke-linecap="round" d="M380.486+247.831C418.574+232.25+581.311+211.475+624.592+211.475C783.866+211.475+840.997+265.143+840.997+493.668C840.997+722.192+783.866+777.592+624.592+777.592C475.705+777.592+266.224+755.086+202.168+691.029C160.618+649.48+148.5+381.137+169.275+329.199C188.318+280.724+196.974+183.775+415.111+100.675C546.686+48.7377+621.129+137.031+591.698+209.743" fill="#ff0000" stroke="#ff0000" stroke-width="12"/>
<path opacity="1" fill="none" d="M1486.86+86.9341L1486.86+10" stroke-width="12" stroke-linejoin="miter" stroke="#0069ff" stroke-linecap="butt"/>
</g>
</svg>
